<svg xmlns="http://www.w3.org/2000/svg" width="131" height="178" baseProfile="tiny-ps" version="1.2">
  <style>
    .shp1{fill:none;stroke:#000;stroke-linecap:round;stroke-width:2}
  </style>
  <path fill-rule="evenodd" d="M29.07 25.73l1.24-11.41c.02-.14.08-.26.2-.35.12-.1.25-.14.38-.12.15.02.26.09.35.19.1.12.14.24.12.38l-1.24 11.43c-.02.14-.09.26-.21.36-.11.09-.24.13-.38.11a.595.595 0 01-.36-.2.505.505 0 01-.1-.39zm7.02-12.02l-9.98.07c-.14 0-.26-.06-.38-.15a.556.556 0 010-.74c.12-.11.24-.17.38-.17l9.98-.05c.14 0 .25.05.36.15.1.1.16.22.16.37 0 .14-.05.27-.15.38-.1.1-.23.14-.37.14zm1.29 6.59c.17-.42.38-.82.6-1.2.22-.38.46-.71.72-.99.27-.29.55-.51.85-.67.31-.17.64-.26.99-.26.53 0 .96.07 1.29.2.33.12.58.29.76.49.18.2.31.42.36.65.07.23.1.44.1.66 0 .23-.02.41-.05.55-.02.08-.04.16-.06.22a.503.503 0 01-.66.35.503.503 0 01-.31-.24.553.553 0 01-.03-.4s.01-.08.04-.23c.03-.15.01-.32-.04-.49-.06-.19-.2-.35-.41-.49-.2-.15-.53-.22-.99-.22-.3 0-.58.11-.85.32-.26.2-.5.47-.72.81-.22.33-.43.71-.62 1.15-.18.44-.34.9-.49 1.37-.15.46-.28.92-.39 1.37-.12.46-.21.89-.29 1.28l-.18.97c-.04.27-.07.46-.08.55a.42.42 0 01-.19.33c-.1.05-.21.08-.32.08-.14 0-.27-.03-.39-.12-.11-.09-.17-.2-.14-.34.13-1.41.25-2.81.35-4.2.12-1.39.22-2.79.31-4.2.01-.15.06-.27.18-.36.11-.1.23-.15.37-.13.15.02.27.08.36.19.1.1.14.23.14.38-.04.44-.07.87-.11 1.32-.03.43-.07.86-.1 1.3zm10.27 5.37c-.1.02-.17.03-.21.03-.14 0-.28-.08-.43-.24-.14-.16-.29-.38-.44-.66-.14-.28-.28-.61-.42-.99-.13-.39-.25-.81-.36-1.26-.1-.41-.2-.84-.28-1.28-.08-.45-.16-.89-.23-1.34-.06-.45-.11-.91-.15-1.36-.03-.44-.04-.87-.04-1.27 0-.14.04-.26.14-.36.11-.11.23-.17.38-.17.14 0 .26.06.36.17.11.1.17.22.17.36 0 .39.01.8.04 1.23a28.848 28.848 0 00.36 2.56c.09.43.18.83.27 1.21.17.68.34 1.22.49 1.61.18.39.28.59.31.59.02 0 .05-.02.1-.07.05-.06.11-.13.17-.22.06-.08.11-.16.16-.23.06-.09.11-.17.15-.23.17-.26.35-.55.53-.86.18-.3.35-.63.52-.97.18-.34.36-.68.53-1.02.18-.35.34-.69.49-1.02.13-.26.24-.5.33-.74.09-.23.18-.46.25-.66.21-.51.4-.89.55-1.15.16-.27.35-.38.58-.33.34.07.47.32.37.73-.04.22-.16.54-.37.97-.21.43-.45.93-.7 1.5-.31.66-.66 1.43-1.05 2.3-.39.88-.83 1.83-1.31 2.84-.47 1.01-.99 2.07-1.56 3.2-.56 1.1-1.16 2.22-1.81 3.34-.09.12-.2.2-.34.24-.12.04-.25.02-.39-.06a.582.582 0 01-.25-.31.528.528 0 01.06-.39c.57-.98 1.11-1.95 1.61-2.9s.97-1.88 1.42-2.79zm13.74.21l.91-8.26c.03-.14.09-.26.2-.35.11-.1.24-.14.39-.12.14.02.26.09.34.21.11.11.15.23.13.37L62.42 26a.58.58 0 01-.19.36.46.46 0 01-.37.1.537.537 0 01-.37-.19.526.526 0 01-.1-.39zm1.24-11.75l.07-.52a.51.51 0 01.19-.34c.12-.09.25-.13.39-.11.15.02.27.09.36.2.09.1.13.23.11.37l-.08.53c-.02.15-.08.27-.19.36-.11.09-.25.12-.39.1a.533.533 0 01-.35-.19.57.57 0 01-.11-.4zm4.23 3.96l-1.06.02c-.14 0-.27-.05-.38-.15a.598.598 0 01-.16-.37c0-.14.05-.27.15-.36.1-.11.22-.17.36-.17l1.29-.03c.05-.23.09-.45.12-.66.04-.21.08-.42.12-.65.04-.22.08-.46.12-.7.05-.25.1-.52.15-.81a.46.46 0 01.21-.33c.12-.09.25-.12.39-.1.14.02.25.1.33.22.09.12.13.25.11.39-.06.35-.14.76-.23 1.23-.08.47-.16.94-.24 1.4l3.74-.09c.14 0 .27.05.37.15.11.1.16.22.16.36 0 .15-.05.27-.14.39-.11.1-.22.15-.36.15l-3.97.09c-.21 1.16-.39 2.25-.53 3.25-.14.99-.22 1.84-.22 2.55 0 .5.04.89.11 1.17.08.28.21.42.39.42.52 0 .94-.09 1.26-.27.33-.18.58-.37.77-.58.19-.22.31-.41.39-.59.07-.18.1-.27.1-.27.03-.14.1-.25.23-.32.12-.07.26-.09.4-.05.14.03.24.12.32.24.07.12.1.25.06.38l-.06.2c-.05.12-.11.27-.22.46-.1.18-.23.38-.4.61-.17.2-.38.4-.65.59-.26.19-.57.34-.94.47-.36.12-.78.18-1.26.18-.57 0-.97-.23-1.2-.69-.23-.47-.35-1.12-.35-1.95 0-.72.08-1.57.22-2.55.14-.99.3-2.07.5-3.23zM20 43.67c-.1.02-.17.03-.21.03-.14 0-.29-.08-.44-.24-.14-.16-.28-.38-.43-.66-.14-.28-.28-.61-.42-.99-.13-.39-.25-.81-.36-1.26-.1-.41-.2-.83-.29-1.28-.08-.44-.15-.89-.22-1.35-.06-.44-.11-.9-.15-1.34-.03-.45-.05-.88-.05-1.28 0-.14.05-.26.15-.36a.5.5 0 01.38-.17c.14 0 .26.06.36.17.11.1.16.22.16.36 0 .39.02.8.05 1.23a28.848 28.848 0 00.36 2.56c.09.43.18.82.27 1.21.17.68.33 1.22.49 1.61.17.39.27.59.3.59.02 0 .06-.02.11-.08.05-.05.1-.12.16-.2.06-.09.12-.17.17-.24.06-.09.11-.17.15-.23.17-.26.34-.55.52-.86.18-.3.36-.63.53-.97.18-.34.35-.68.52-1.02.18-.35.35-.69.5-1.02.13-.26.24-.5.33-.74.09-.24.17-.46.25-.66.21-.5.39-.89.54-1.15.16-.27.36-.38.59-.33.34.07.46.32.37.73-.04.22-.16.54-.37.97-.21.43-.45.93-.71 1.5-.31.66-.66 1.43-1.05 2.31-.39.88-.82 1.82-1.3 2.83-.47 1.01-.99 2.07-1.56 3.19-.56 1.12-1.17 2.23-1.82 3.35-.08.12-.19.2-.33.24a.46.46 0 01-.39-.06.54.54 0 01-.25-.31.521.521 0 01.06-.39c.57-.98 1.1-1.95 1.6-2.9s.98-1.88 1.43-2.79zm7.6-6.4c.04-.22.12-.45.23-.72a2.577 2.577 0 011.45-1.44c.39-.18.89-.27 1.49-.27.61 0 1.13.13 1.56.39.43.25.78.57 1.05.99.27.4.46.85.58 1.37.13.51.2 1.03.2 1.55 0 .78-.1 1.51-.3 2.19-.2.67-.5 1.26-.9 1.76-.39.49-.88.87-1.46 1.16-.57.28-1.23.42-1.98.42-.55 0-1.04-.1-1.48-.29-.43-.2-.8-.47-1.1-.82-.3-.35-.53-.75-.69-1.2-.16-.45-.24-.92-.24-1.42 0-.47.05-.92.14-1.33.1-.43.2-.81.31-1.13.12-.33.23-.6.33-.79.11-.2.17-.31.18-.32.07-.1.17-.16.3-.17.13 0 .24.01.33.07zm.12.84c-.02-.02-.06.03-.13.16s-.15.33-.23.59c-.07.25-.13.55-.19.91-.06.35-.09.74-.09 1.17 0 .36.05.71.15 1.04.11.32.26.6.46.85.21.24.47.44.77.58.31.14.66.22 1.06.22.6 0 1.13-.12 1.58-.35.45-.23.82-.55 1.11-.94.3-.4.52-.88.67-1.42.15-.54.23-1.14.23-1.78 0-.38-.04-.76-.12-1.14-.07-.39-.2-.74-.38-1.05-.18-.32-.42-.57-.72-.76-.3-.21-.67-.31-1.12-.31-.54 0-.96.1-1.25.29-.29.19-.5.4-.64.63-.13.23-.21.44-.24.65l-.03.28c0 .14-.06.27-.17.39-.1.11-.22.16-.36.15a.44.44 0 01-.36-.16zm13.8 1.78c-.25.56-.52 1.12-.82 1.66-.29.54-.61 1.03-.95 1.46-.34.42-.7.76-1.08 1.04-.38.25-.77.39-1.18.39-.35 0-.65-.08-.89-.24-.23-.18-.41-.4-.55-.68-.14-.29-.24-.62-.3-1-.06-.39-.09-.79-.09-1.22 0-.44.02-.89.07-1.35.05-.46.11-.91.18-1.35.07-.44.15-.86.24-1.24.09-.4.17-.73.24-1.02.07-.31.13-.54.18-.71.05-.18.08-.27.08-.27a.536.536 0 01.66-.36c.14.05.24.14.31.27.07.12.08.25.03.39 0 0-.02.09-.07.29-.05.18-.11.42-.18.73-.07.3-.15.65-.24 1.05s-.17.82-.24 1.26c-.07.43-.13.86-.18 1.31-.05.43-.08.83-.08 1.21 0 .54.07.98.2 1.32.13.34.36.51.7.51.4 0 .79-.19 1.16-.59.38-.4.73-.89 1.06-1.48.33-.6.63-1.24.9-1.93.28-.7.52-1.34.72-1.93.2-.6.36-1.1.47-1.5.11-.39.16-.6.16-.6.03-.11.1-.18.2-.22.11-.05.22-.07.33-.07.14 0 .26.04.36.13.11.08.15.19.13.35-.15 1.41-.3 2.83-.46 4.24-.15 1.4-.3 2.81-.45 4.23-.02.14-.09.26-.2.36a.49.49 0 01-.39.11.65.65 0 01-.36-.2.486.486 0 01-.1-.39c.08-.66.15-1.32.21-1.98.07-.66.14-1.32.22-1.98zm4.56-1.59c.18-.42.38-.82.6-1.2.22-.38.46-.71.72-.99.27-.29.56-.52.86-.67.31-.17.64-.26.99-.26.53 0 .96.06 1.29.2.33.13.58.29.76.49.18.2.3.42.36.65.06.22.09.44.09.65 0 .23-.01.42-.04.56-.02.08-.04.15-.06.22-.04.14-.13.25-.26.32s-.26.08-.4.03a.523.523 0 01-.32-.24.553.553 0 01-.03-.4s.02-.08.05-.23c.03-.15.01-.31-.05-.49a.964.964 0 00-.4-.49c-.2-.15-.53-.22-.99-.22-.3 0-.59.11-.86.32-.26.19-.5.47-.72.81-.22.33-.42.71-.61 1.15-.18.44-.35.9-.5 1.37-.15.46-.28.91-.39 1.37-.11.46-.2.89-.28 1.28l-.18.97c-.04.27-.07.45-.08.55-.02.15-.08.25-.19.33a.631.631 0 01-.71-.04.33.33 0 01-.15-.34c.13-1.41.25-2.81.36-4.2.11-1.39.21-2.79.3-4.2.01-.15.07-.27.18-.36.11-.1.24-.14.38-.13.15.02.27.08.36.19.1.1.14.22.13.37-.03.45-.06.88-.1 1.33-.03.43-.07.86-.11 1.3zm13.83-.36a.502.502 0 01-.3-.27.467.467 0 010-.4c.03-.22 0-.4-.1-.56a1.03 1.03 0 00-.41-.39c-.17-.11-.37-.19-.6-.24-.23-.05-.46-.08-.7-.08-.28 0-.59.03-.92.09-.32.06-.63.14-.93.28-.29.13-.54.29-.75.51-.2.21-.32.46-.36.78 0 .28.08.5.24.68.17.18.38.33.62.44.25.11.51.2.79.25.28.06.53.11.74.14.35.06.72.16 1.12.3.41.13.79.3 1.13.53.34.22.61.48.82.79.21.3.29.65.24 1.05-.03.4-.16.76-.39 1.08-.22.32-.5.6-.85.83-.34.23-.72.41-1.13.53-.41.13-.82.19-1.23.19-.5 0-.96-.09-1.39-.26a6.39 6.39 0 01-1.11-.57 6.29 6.29 0 01-1.01-.83.523.523 0 01-.18-.36c0-.13.06-.26.17-.37.1-.11.22-.17.36-.17.14 0 .26.04.37.14 0 0 .08.08.23.22a4.85 4.85 0 001.48.93c.34.14.7.21 1.08.21.28 0 .57-.03.86-.11.29-.09.55-.2.79-.33.24-.16.45-.34.62-.55.17-.21.27-.44.3-.7.02-.21-.06-.4-.24-.57-.17-.17-.39-.32-.66-.45a5.49 5.49 0 00-.83-.32c-.28-.08-.52-.15-.72-.19-.34-.06-.71-.14-1.12-.25-.41-.12-.79-.27-1.13-.47-.33-.21-.6-.47-.81-.78-.2-.32-.27-.71-.21-1.19.06-.45.23-.83.5-1.15.27-.32.59-.58.97-.8.38-.21.79-.35 1.23-.44.45-.1.89-.16 1.31-.16.38 0 .74.06 1.08.16.35.1.66.23.93.41.27.18.48.41.64.68.16.26.24.56.24.89 0 .18-.04.36-.12.55-.05.14-.14.24-.27.3-.13.05-.26.05-.39 0zm4.05 2.2a.516.516 0 01-.37-.17.54.54 0 01-.12-.38c.02-.15.08-.27.19-.36.11-.1.24-.14.38-.14a23.588 23.588 0 003.37.07c.38-.03.71-.07.99-.13.29-.05.53-.13.71-.22.19-.09.3-.2.34-.33.05-.23.08-.43.08-.6 0-.34-.07-.64-.2-.91s-.31-.5-.54-.7c-.23-.18-.5-.33-.82-.43-.31-.1-.65-.15-1.02-.15-.64 0-1.2.15-1.67.45-.46.29-.84.66-1.14 1.13-.3.44-.52.95-.67 1.51a6.44 6.44 0 00-.21 1.59c0 .35.04.72.12 1.11.08.38.2.73.37 1.05.18.32.41.59.69.8.29.19.65.3 1.07.3.53 0 .98-.07 1.36-.2.38-.13.7-.27.96-.43.3-.18.55-.39.74-.62.09-.11.2-.17.34-.19.15-.03.29.01.41.1.11.09.17.21.18.36.02.14-.02.26-.11.37 0 0-.08.1-.24.28-.16.16-.4.35-.72.56-.32.2-.72.39-1.21.56-.48.17-1.05.25-1.71.25-.57 0-1.07-.13-1.49-.39-.41-.26-.75-.59-1.03-1-.27-.42-.47-.89-.6-1.4-.13-.5-.2-1.01-.2-1.51 0-.63.1-1.28.3-1.96.2-.68.5-1.3.89-1.85a5 5 0 011.48-1.38c.6-.36 1.3-.54 2.09-.54.54 0 1.03.08 1.47.24.44.16.81.39 1.12.67.32.29.57.63.74 1.04a3.18 3.18 0 01.24 1.71c-.01.12-.03.25-.05.39a1.2 1.2 0 01-.46.73c-.25.2-.57.35-.96.47-.38.12-.81.21-1.29.27-.48.05-.99.07-1.52.07-.37 0-.75 0-1.15-.01-.39-.02-.77-.05-1.13-.08zm8.1 3.72l1.58-12.66c.02-.13.08-.25.19-.34.12-.1.25-.14.39-.12.14.02.26.09.35.21.09.11.12.24.1.38L73.1 44c-.02.14-.09.26-.21.34-.11.1-.24.13-.38.11a.486.486 0 01-.34-.2.501.501 0 01-.11-.39zm5.28-7.33h-.87a.53.53 0 01-.37-.15.537.537 0 01-.15-.38c0-.15.05-.27.15-.37.11-.1.23-.15.37-.15h1.02c.11-.71.25-1.37.41-1.98.16-.62.35-1.16.57-1.61.22-.44.47-.8.76-1.06.3-.26.65-.39 1.04-.4.38-.02.75.02 1.12.12.38.09.72.23 1.01.43.29.19.52.43.7.73.18.31.27.66.27 1.06 0 .21-.03.41-.09.61a.55.55 0 01-.25.33c-.12.07-.25.09-.39.05a.621.621 0 01-.33-.24.541.541 0 01-.05-.41c.08-.3.07-.56-.03-.77-.09-.21-.23-.39-.43-.52-.2-.13-.44-.22-.71-.27-.27-.06-.53-.09-.79-.07-.22.01-.43.11-.62.31-.18.2-.34.48-.48.84-.14.35-.26.77-.37 1.26-.11.49-.21 1.02-.3 1.59h2.41c.14 0 .26.05.36.15.11.1.17.22.17.37s-.06.27-.17.38c-.1.1-.22.15-.36.15h-2.55c-.15 1.23-.27 2.46-.36 3.69-.08 1.23-.18 2.49-.31 3.78-.02.14-.09.26-.2.36-.11.09-.23.13-.37.11a.595.595 0 01-.36-.2.468.468 0 01-.11-.38c.05-.55.1-1.15.15-1.76l.15-1.91c.05-.64.11-1.27.17-1.91.06-.62.12-1.22.19-1.78z"/>
  <path fill-rule="evenodd" d="M49.5 56.05c0 35.68-15.71 77.48 15.5 102 6.93 5.45 13.59 5.8 21.19 5.26 9.58-.69 19.25-1.99 29.12-2.55" class="shp1"/>
  <path fill-rule="evenodd" d="M98.31 149.63c5.63 2.82 10.95 6.29 16.5 9.25 1.53.82 6.29 1.59 4.69 2.25-6.06 2.53-16.68 7.19-21.7 11.09" class="shp1"/>
</svg>
